<mxfile host="app.diagrams.net" modified="2022-01-25T00:49:03.456Z" agent="5.0 (Windows NT 10.0; Win64; x64) AppleWebKit/537.36 (KHTML, like Gecko) Chrome/97.0.4692.99 Safari/537.36 Edg/97.0.1072.69" etag="LfulfACi7g17dFnVLw2D" version="16.4.5" type="github">
  <diagram id="C5RBs43oDa-KdzZeNtuy" name="Page-1">
    <mxGraphModel dx="798" dy="445" grid="1" gridSize="10" guides="1" tooltips="1" connect="1" arrows="1" fold="1" page="1" pageScale="1" pageWidth="850" pageHeight="1100" background="#114B5F" math="0" shadow="0">
      <root>
        <mxCell id="WIyWlLk6GJQsqaUBKTNV-0" />
        <mxCell id="WIyWlLk6GJQsqaUBKTNV-1" parent="WIyWlLk6GJQsqaUBKTNV-0" />
        <mxCell id="WIyWlLk6GJQsqaUBKTNV-2" value="" style="rounded=0;html=1;jettySize=auto;orthogonalLoop=1;fontSize=11;endArrow=block;endFill=0;endSize=8;strokeWidth=1;shadow=0;labelBackgroundColor=none;edgeStyle=orthogonalEdgeStyle;strokeColor=#028090;fontColor=#E4FDE1;" parent="WIyWlLk6GJQsqaUBKTNV-1" source="WIyWlLk6GJQsqaUBKTNV-3" target="WIyWlLk6GJQsqaUBKTNV-6" edge="1">
          <mxGeometry relative="1" as="geometry" />
        </mxCell>
        <mxCell id="WIyWlLk6GJQsqaUBKTNV-3" value="资产报废" style="rounded=1;whiteSpace=wrap;html=1;fontSize=12;glass=0;strokeWidth=1;shadow=0;fillColor=#F45B69;strokeColor=#028090;fontColor=#E4FDE1;" parent="WIyWlLk6GJQsqaUBKTNV-1" vertex="1">
          <mxGeometry x="359" y="100" width="120" height="40" as="geometry" />
        </mxCell>
        <mxCell id="WIyWlLk6GJQsqaUBKTNV-6" value="是否是固定资产？" style="rhombus;whiteSpace=wrap;html=1;shadow=0;fontFamily=Helvetica;fontSize=12;align=center;strokeWidth=1;spacing=6;spacingTop=-4;fillColor=#F45B69;strokeColor=#028090;fontColor=#E4FDE1;" parent="WIyWlLk6GJQsqaUBKTNV-1" vertex="1">
          <mxGeometry x="369" y="190" width="100" height="80" as="geometry" />
        </mxCell>
        <mxCell id="WijUJa5ANFM2y0LzUL5g-0" value="Yes" style="edgeStyle=orthogonalEdgeStyle;rounded=0;html=1;jettySize=auto;orthogonalLoop=1;fontSize=11;endArrow=block;endFill=0;endSize=8;strokeWidth=1;shadow=0;labelBackgroundColor=none;strokeColor=#028090;fontColor=#E4FDE1;" edge="1" parent="WIyWlLk6GJQsqaUBKTNV-1">
          <mxGeometry y="10" relative="1" as="geometry">
            <mxPoint as="offset" />
            <mxPoint x="469" y="230" as="sourcePoint" />
            <mxPoint x="519" y="230" as="targetPoint" />
          </mxGeometry>
        </mxCell>
        <mxCell id="WijUJa5ANFM2y0LzUL5g-2" value="No" style="text;html=1;align=center;verticalAlign=middle;resizable=0;points=[];autosize=1;strokeColor=none;fillColor=none;fontColor=#E4FDE1;" vertex="1" parent="WIyWlLk6GJQsqaUBKTNV-1">
          <mxGeometry x="329" y="210" width="30" height="20" as="geometry" />
        </mxCell>
        <mxCell id="WijUJa5ANFM2y0LzUL5g-3" value="" style="rounded=0;html=1;jettySize=auto;orthogonalLoop=1;fontSize=11;endArrow=block;endFill=0;endSize=8;strokeWidth=1;shadow=0;labelBackgroundColor=none;edgeStyle=orthogonalEdgeStyle;exitX=0;exitY=0.5;exitDx=0;exitDy=0;strokeColor=#028090;fontColor=#E4FDE1;" edge="1" parent="WIyWlLk6GJQsqaUBKTNV-1" source="WIyWlLk6GJQsqaUBKTNV-6">
          <mxGeometry relative="1" as="geometry">
            <mxPoint x="319" y="150" as="sourcePoint" />
            <mxPoint x="309" y="230" as="targetPoint" />
            <Array as="points">
              <mxPoint x="349" y="230" />
              <mxPoint x="349" y="230" />
            </Array>
          </mxGeometry>
        </mxCell>
        <mxCell id="WijUJa5ANFM2y0LzUL5g-30" style="edgeStyle=orthogonalEdgeStyle;rounded=0;orthogonalLoop=1;jettySize=auto;html=1;entryX=0;entryY=0.5;entryDx=0;entryDy=0;labelBackgroundColor=#114B5F;strokeColor=#028090;fontColor=#E4FDE1;" edge="1" parent="WIyWlLk6GJQsqaUBKTNV-1" source="WijUJa5ANFM2y0LzUL5g-7" target="WijUJa5ANFM2y0LzUL5g-15">
          <mxGeometry relative="1" as="geometry">
            <Array as="points">
              <mxPoint x="250" y="380" />
              <mxPoint x="250" y="650" />
            </Array>
          </mxGeometry>
        </mxCell>
        <mxCell id="WijUJa5ANFM2y0LzUL5g-49" style="edgeStyle=orthogonalEdgeStyle;rounded=0;orthogonalLoop=1;jettySize=auto;html=1;entryX=0.5;entryY=0;entryDx=0;entryDy=0;labelBackgroundColor=#114B5F;strokeColor=#028090;fontColor=#E4FDE1;" edge="1" parent="WIyWlLk6GJQsqaUBKTNV-1" source="WijUJa5ANFM2y0LzUL5g-7" target="WijUJa5ANFM2y0LzUL5g-13">
          <mxGeometry relative="1" as="geometry" />
        </mxCell>
        <mxCell id="WijUJa5ANFM2y0LzUL5g-7" value="部门经理审批" style="rounded=1;whiteSpace=wrap;html=1;absoluteArcSize=1;arcSize=14;strokeWidth=2;fillColor=#F45B69;strokeColor=#028090;fontColor=#E4FDE1;" vertex="1" parent="WIyWlLk6GJQsqaUBKTNV-1">
          <mxGeometry x="520" y="310" width="100" height="100" as="geometry" />
        </mxCell>
        <mxCell id="WijUJa5ANFM2y0LzUL5g-29" style="edgeStyle=orthogonalEdgeStyle;rounded=0;orthogonalLoop=1;jettySize=auto;html=1;labelBackgroundColor=#114B5F;strokeColor=#028090;fontColor=#E4FDE1;" edge="1" parent="WIyWlLk6GJQsqaUBKTNV-1" source="WijUJa5ANFM2y0LzUL5g-8">
          <mxGeometry relative="1" as="geometry">
            <mxPoint x="520" y="340" as="targetPoint" />
            <Array as="points">
              <mxPoint x="250" y="340" />
              <mxPoint x="520" y="340" />
            </Array>
          </mxGeometry>
        </mxCell>
        <mxCell id="WijUJa5ANFM2y0LzUL5g-8" value="&lt;span&gt;填写报废单主数据&lt;/span&gt;" style="shape=parallelogram;html=1;strokeWidth=2;perimeter=parallelogramPerimeter;whiteSpace=wrap;rounded=1;arcSize=12;size=0.23;fillColor=#F45B69;strokeColor=#028090;fontColor=#E4FDE1;" vertex="1" parent="WIyWlLk6GJQsqaUBKTNV-1">
          <mxGeometry x="180" y="200" width="140" height="60" as="geometry" />
        </mxCell>
        <mxCell id="WijUJa5ANFM2y0LzUL5g-50" style="edgeStyle=orthogonalEdgeStyle;rounded=0;orthogonalLoop=1;jettySize=auto;html=1;entryX=0.6;entryY=0;entryDx=0;entryDy=0;entryPerimeter=0;labelBackgroundColor=#114B5F;strokeColor=#028090;fontColor=#E4FDE1;" edge="1" parent="WIyWlLk6GJQsqaUBKTNV-1" source="WijUJa5ANFM2y0LzUL5g-9" target="WijUJa5ANFM2y0LzUL5g-7">
          <mxGeometry relative="1" as="geometry" />
        </mxCell>
        <mxCell id="WijUJa5ANFM2y0LzUL5g-9" value="&lt;span&gt;填写报废单主数据&lt;/span&gt;" style="shape=parallelogram;html=1;strokeWidth=2;perimeter=parallelogramPerimeter;whiteSpace=wrap;rounded=1;arcSize=12;size=0.23;fillColor=#F45B69;strokeColor=#028090;fontColor=#E4FDE1;" vertex="1" parent="WIyWlLk6GJQsqaUBKTNV-1">
          <mxGeometry x="510" y="200" width="140" height="60" as="geometry" />
        </mxCell>
        <mxCell id="WijUJa5ANFM2y0LzUL5g-11" value="由资产的使用部门填写" style="text;html=1;align=center;verticalAlign=middle;resizable=0;points=[];autosize=1;strokeColor=none;fillColor=none;fontColor=#E4FDE1;" vertex="1" parent="WIyWlLk6GJQsqaUBKTNV-1">
          <mxGeometry x="650" y="220" width="140" height="20" as="geometry" />
        </mxCell>
        <mxCell id="WijUJa5ANFM2y0LzUL5g-12" value="由提交者的部门经理审批" style="text;html=1;align=center;verticalAlign=middle;resizable=0;points=[];autosize=1;strokeColor=none;fillColor=none;fontColor=#E4FDE1;" vertex="1" parent="WIyWlLk6GJQsqaUBKTNV-1">
          <mxGeometry x="650" y="350" width="150" height="20" as="geometry" />
        </mxCell>
        <mxCell id="WijUJa5ANFM2y0LzUL5g-48" style="edgeStyle=orthogonalEdgeStyle;rounded=0;orthogonalLoop=1;jettySize=auto;html=1;entryX=0.5;entryY=0;entryDx=0;entryDy=0;labelBackgroundColor=#114B5F;strokeColor=#028090;fontColor=#E4FDE1;" edge="1" parent="WIyWlLk6GJQsqaUBKTNV-1" source="WijUJa5ANFM2y0LzUL5g-13" target="WijUJa5ANFM2y0LzUL5g-15">
          <mxGeometry relative="1" as="geometry" />
        </mxCell>
        <mxCell id="WijUJa5ANFM2y0LzUL5g-13" value="技术部门审批" style="rounded=1;whiteSpace=wrap;html=1;absoluteArcSize=1;arcSize=14;strokeWidth=2;fillColor=#F45B69;strokeColor=#028090;fontColor=#E4FDE1;" vertex="1" parent="WIyWlLk6GJQsqaUBKTNV-1">
          <mxGeometry x="520" y="450" width="100" height="100" as="geometry" />
        </mxCell>
        <mxCell id="WijUJa5ANFM2y0LzUL5g-14" value="根据主数据中的设备类型来决定具体部门" style="text;html=1;align=center;verticalAlign=middle;resizable=0;points=[];autosize=1;strokeColor=none;fillColor=none;fontColor=#E4FDE1;" vertex="1" parent="WIyWlLk6GJQsqaUBKTNV-1">
          <mxGeometry x="655" y="500" width="230" height="20" as="geometry" />
        </mxCell>
        <mxCell id="WijUJa5ANFM2y0LzUL5g-31" style="edgeStyle=orthogonalEdgeStyle;rounded=0;orthogonalLoop=1;jettySize=auto;html=1;exitX=0;exitY=0.75;exitDx=0;exitDy=0;entryX=0;entryY=0.25;entryDx=0;entryDy=0;labelBackgroundColor=#114B5F;strokeColor=#028090;fontColor=#E4FDE1;" edge="1" parent="WIyWlLk6GJQsqaUBKTNV-1" source="WijUJa5ANFM2y0LzUL5g-15" target="WijUJa5ANFM2y0LzUL5g-19">
          <mxGeometry relative="1" as="geometry">
            <Array as="points">
              <mxPoint x="250" y="675" />
              <mxPoint x="250" y="925" />
            </Array>
          </mxGeometry>
        </mxCell>
        <mxCell id="WijUJa5ANFM2y0LzUL5g-47" style="edgeStyle=orthogonalEdgeStyle;rounded=0;orthogonalLoop=1;jettySize=auto;html=1;entryX=0.5;entryY=0;entryDx=0;entryDy=0;labelBackgroundColor=#114B5F;strokeColor=#028090;fontColor=#E4FDE1;" edge="1" parent="WIyWlLk6GJQsqaUBKTNV-1" source="WijUJa5ANFM2y0LzUL5g-15" target="WijUJa5ANFM2y0LzUL5g-18">
          <mxGeometry relative="1" as="geometry" />
        </mxCell>
        <mxCell id="WijUJa5ANFM2y0LzUL5g-15" value="财务部门审批" style="rounded=1;whiteSpace=wrap;html=1;absoluteArcSize=1;arcSize=14;strokeWidth=2;fillColor=#F45B69;strokeColor=#028090;fontColor=#E4FDE1;" vertex="1" parent="WIyWlLk6GJQsqaUBKTNV-1">
          <mxGeometry x="520" y="600" width="100" height="100" as="geometry" />
        </mxCell>
        <mxCell id="WijUJa5ANFM2y0LzUL5g-17" value="需要提供财务部门的审核人员名单" style="text;html=1;align=center;verticalAlign=middle;resizable=0;points=[];autosize=1;strokeColor=none;fillColor=none;fontColor=#E4FDE1;" vertex="1" parent="WIyWlLk6GJQsqaUBKTNV-1">
          <mxGeometry x="650" y="630" width="200" height="20" as="geometry" />
        </mxCell>
        <mxCell id="WijUJa5ANFM2y0LzUL5g-46" style="edgeStyle=orthogonalEdgeStyle;rounded=0;orthogonalLoop=1;jettySize=auto;html=1;entryX=0.5;entryY=0;entryDx=0;entryDy=0;labelBackgroundColor=#114B5F;strokeColor=#028090;fontColor=#E4FDE1;" edge="1" parent="WIyWlLk6GJQsqaUBKTNV-1" source="WijUJa5ANFM2y0LzUL5g-18" target="WijUJa5ANFM2y0LzUL5g-19">
          <mxGeometry relative="1" as="geometry" />
        </mxCell>
        <mxCell id="WijUJa5ANFM2y0LzUL5g-18" value="总经理" style="rounded=1;whiteSpace=wrap;html=1;absoluteArcSize=1;arcSize=14;strokeWidth=2;fillColor=#F45B69;strokeColor=#028090;fontColor=#E4FDE1;" vertex="1" parent="WIyWlLk6GJQsqaUBKTNV-1">
          <mxGeometry x="520" y="750" width="100" height="100" as="geometry" />
        </mxCell>
        <mxCell id="WijUJa5ANFM2y0LzUL5g-32" style="edgeStyle=orthogonalEdgeStyle;rounded=0;orthogonalLoop=1;jettySize=auto;html=1;exitX=0;exitY=0.75;exitDx=0;exitDy=0;entryX=0;entryY=0.25;entryDx=0;entryDy=0;labelBackgroundColor=#114B5F;strokeColor=#028090;fontColor=#E4FDE1;" edge="1" parent="WIyWlLk6GJQsqaUBKTNV-1" source="WijUJa5ANFM2y0LzUL5g-19" target="WijUJa5ANFM2y0LzUL5g-22">
          <mxGeometry relative="1" as="geometry">
            <Array as="points">
              <mxPoint x="250" y="975" />
              <mxPoint x="250" y="1055" />
            </Array>
          </mxGeometry>
        </mxCell>
        <mxCell id="WijUJa5ANFM2y0LzUL5g-45" style="edgeStyle=orthogonalEdgeStyle;rounded=0;orthogonalLoop=1;jettySize=auto;html=1;entryX=0.5;entryY=0;entryDx=0;entryDy=0;labelBackgroundColor=#114B5F;strokeColor=#028090;fontColor=#E4FDE1;" edge="1" parent="WIyWlLk6GJQsqaUBKTNV-1" source="WijUJa5ANFM2y0LzUL5g-19" target="WijUJa5ANFM2y0LzUL5g-22">
          <mxGeometry relative="1" as="geometry" />
        </mxCell>
        <mxCell id="WijUJa5ANFM2y0LzUL5g-19" value="资产管理专员" style="rounded=1;whiteSpace=wrap;html=1;absoluteArcSize=1;arcSize=14;strokeWidth=2;fillColor=#F45B69;strokeColor=#028090;fontColor=#E4FDE1;" vertex="1" parent="WIyWlLk6GJQsqaUBKTNV-1">
          <mxGeometry x="520" y="900" width="100" height="100" as="geometry" />
        </mxCell>
        <mxCell id="WijUJa5ANFM2y0LzUL5g-20" value="需要提供总经理工号" style="text;html=1;align=center;verticalAlign=middle;resizable=0;points=[];autosize=1;strokeColor=none;fillColor=none;fontColor=#E4FDE1;" vertex="1" parent="WIyWlLk6GJQsqaUBKTNV-1">
          <mxGeometry x="655" y="780" width="120" height="20" as="geometry" />
        </mxCell>
        <mxCell id="WijUJa5ANFM2y0LzUL5g-21" value="需要提供资产管理专员工号" style="text;html=1;align=center;verticalAlign=middle;resizable=0;points=[];autosize=1;strokeColor=none;fillColor=none;fontColor=#E4FDE1;" vertex="1" parent="WIyWlLk6GJQsqaUBKTNV-1">
          <mxGeometry x="655" y="930" width="160" height="20" as="geometry" />
        </mxCell>
        <mxCell id="WijUJa5ANFM2y0LzUL5g-33" style="edgeStyle=orthogonalEdgeStyle;rounded=0;orthogonalLoop=1;jettySize=auto;html=1;exitX=0;exitY=0.75;exitDx=0;exitDy=0;entryX=0.5;entryY=0;entryDx=0;entryDy=0;labelBackgroundColor=#114B5F;strokeColor=#028090;fontColor=#E4FDE1;" edge="1" parent="WIyWlLk6GJQsqaUBKTNV-1" source="WijUJa5ANFM2y0LzUL5g-22" target="WijUJa5ANFM2y0LzUL5g-34">
          <mxGeometry relative="1" as="geometry">
            <mxPoint x="250" y="1140" as="targetPoint" />
          </mxGeometry>
        </mxCell>
        <mxCell id="WijUJa5ANFM2y0LzUL5g-44" style="edgeStyle=orthogonalEdgeStyle;rounded=0;orthogonalLoop=1;jettySize=auto;html=1;entryX=0.5;entryY=0;entryDx=0;entryDy=0;labelBackgroundColor=#114B5F;strokeColor=#028090;fontColor=#E4FDE1;" edge="1" parent="WIyWlLk6GJQsqaUBKTNV-1" source="WijUJa5ANFM2y0LzUL5g-22" target="WijUJa5ANFM2y0LzUL5g-24">
          <mxGeometry relative="1" as="geometry" />
        </mxCell>
        <mxCell id="WijUJa5ANFM2y0LzUL5g-22" value="仓库核对数量" style="rounded=1;whiteSpace=wrap;html=1;absoluteArcSize=1;arcSize=14;strokeWidth=2;fillColor=#F45B69;strokeColor=#028090;fontColor=#E4FDE1;" vertex="1" parent="WIyWlLk6GJQsqaUBKTNV-1">
          <mxGeometry x="520" y="1030" width="100" height="100" as="geometry" />
        </mxCell>
        <mxCell id="WijUJa5ANFM2y0LzUL5g-23" value="eform发邮件通知提交者将物品拉去报废" style="text;html=1;align=center;verticalAlign=middle;resizable=0;points=[];autosize=1;strokeColor=none;fillColor=none;fontColor=#E4FDE1;" vertex="1" parent="WIyWlLk6GJQsqaUBKTNV-1">
          <mxGeometry x="650" y="1070" width="230" height="20" as="geometry" />
        </mxCell>
        <mxCell id="WijUJa5ANFM2y0LzUL5g-43" style="edgeStyle=orthogonalEdgeStyle;rounded=0;orthogonalLoop=1;jettySize=auto;html=1;entryX=0.5;entryY=0;entryDx=0;entryDy=0;labelBackgroundColor=#114B5F;strokeColor=#028090;fontColor=#E4FDE1;" edge="1" parent="WIyWlLk6GJQsqaUBKTNV-1" source="WijUJa5ANFM2y0LzUL5g-24" target="WijUJa5ANFM2y0LzUL5g-26">
          <mxGeometry relative="1" as="geometry" />
        </mxCell>
        <mxCell id="WijUJa5ANFM2y0LzUL5g-24" value="财务抽检" style="rounded=1;whiteSpace=wrap;html=1;absoluteArcSize=1;arcSize=14;strokeWidth=2;fillColor=#F45B69;strokeColor=#028090;fontColor=#E4FDE1;" vertex="1" parent="WIyWlLk6GJQsqaUBKTNV-1">
          <mxGeometry x="520" y="1170" width="100" height="100" as="geometry" />
        </mxCell>
        <mxCell id="WijUJa5ANFM2y0LzUL5g-25" value="资产管理专员抽查数据是否一致" style="text;html=1;align=center;verticalAlign=middle;resizable=0;points=[];autosize=1;strokeColor=none;fillColor=none;fontColor=#E4FDE1;" vertex="1" parent="WIyWlLk6GJQsqaUBKTNV-1">
          <mxGeometry x="655" y="1210" width="180" height="20" as="geometry" />
        </mxCell>
        <mxCell id="WijUJa5ANFM2y0LzUL5g-42" style="edgeStyle=orthogonalEdgeStyle;rounded=0;orthogonalLoop=1;jettySize=auto;html=1;entryX=0.5;entryY=0;entryDx=0;entryDy=0;labelBackgroundColor=#114B5F;strokeColor=#028090;fontColor=#E4FDE1;" edge="1" parent="WIyWlLk6GJQsqaUBKTNV-1" source="WijUJa5ANFM2y0LzUL5g-26" target="WijUJa5ANFM2y0LzUL5g-28">
          <mxGeometry relative="1" as="geometry" />
        </mxCell>
        <mxCell id="WijUJa5ANFM2y0LzUL5g-26" value="仓库处理" style="rounded=1;whiteSpace=wrap;html=1;absoluteArcSize=1;arcSize=14;strokeWidth=2;fillColor=#F45B69;strokeColor=#028090;fontColor=#E4FDE1;" vertex="1" parent="WIyWlLk6GJQsqaUBKTNV-1">
          <mxGeometry x="520" y="1320" width="100" height="100" as="geometry" />
        </mxCell>
        <mxCell id="WijUJa5ANFM2y0LzUL5g-27" value="由仓库的同事提RFQ" style="text;html=1;align=center;verticalAlign=middle;resizable=0;points=[];autosize=1;strokeColor=none;fillColor=none;fontColor=#E4FDE1;" vertex="1" parent="WIyWlLk6GJQsqaUBKTNV-1">
          <mxGeometry x="665" y="1360" width="130" height="20" as="geometry" />
        </mxCell>
        <mxCell id="WijUJa5ANFM2y0LzUL5g-28" value="仓库关单" style="rounded=1;whiteSpace=wrap;html=1;absoluteArcSize=1;arcSize=14;strokeWidth=2;fillColor=#F45B69;strokeColor=#028090;fontColor=#E4FDE1;" vertex="1" parent="WIyWlLk6GJQsqaUBKTNV-1">
          <mxGeometry x="520" y="1480" width="100" height="100" as="geometry" />
        </mxCell>
        <mxCell id="WijUJa5ANFM2y0LzUL5g-41" style="edgeStyle=orthogonalEdgeStyle;rounded=0;orthogonalLoop=1;jettySize=auto;html=1;entryX=0.5;entryY=0;entryDx=0;entryDy=0;entryPerimeter=0;labelBackgroundColor=#114B5F;strokeColor=#028090;fontColor=#E4FDE1;" edge="1" parent="WIyWlLk6GJQsqaUBKTNV-1" source="WijUJa5ANFM2y0LzUL5g-34" target="WijUJa5ANFM2y0LzUL5g-35">
          <mxGeometry relative="1" as="geometry" />
        </mxCell>
        <mxCell id="WijUJa5ANFM2y0LzUL5g-34" value="SCM抽检" style="rounded=1;whiteSpace=wrap;html=1;absoluteArcSize=1;arcSize=14;strokeWidth=2;fillColor=#F45B69;strokeColor=#028090;fontColor=#E4FDE1;" vertex="1" parent="WIyWlLk6GJQsqaUBKTNV-1">
          <mxGeometry x="200" y="1170" width="100" height="100" as="geometry" />
        </mxCell>
        <mxCell id="WijUJa5ANFM2y0LzUL5g-37" style="edgeStyle=orthogonalEdgeStyle;rounded=0;orthogonalLoop=1;jettySize=auto;html=1;entryX=0;entryY=0.5;entryDx=0;entryDy=0;labelBackgroundColor=#114B5F;strokeColor=#028090;fontColor=#E4FDE1;" edge="1" parent="WIyWlLk6GJQsqaUBKTNV-1" source="WijUJa5ANFM2y0LzUL5g-35" target="WijUJa5ANFM2y0LzUL5g-26">
          <mxGeometry relative="1" as="geometry" />
        </mxCell>
        <mxCell id="WijUJa5ANFM2y0LzUL5g-39" style="edgeStyle=orthogonalEdgeStyle;rounded=0;orthogonalLoop=1;jettySize=auto;html=1;entryX=-0.012;entryY=0.574;entryDx=0;entryDy=0;entryPerimeter=0;labelBackgroundColor=#114B5F;strokeColor=#028090;fontColor=#E4FDE1;" edge="1" parent="WIyWlLk6GJQsqaUBKTNV-1" source="WijUJa5ANFM2y0LzUL5g-35" target="WijUJa5ANFM2y0LzUL5g-28">
          <mxGeometry relative="1" as="geometry">
            <Array as="points">
              <mxPoint x="250" y="1537" />
            </Array>
          </mxGeometry>
        </mxCell>
        <mxCell id="WijUJa5ANFM2y0LzUL5g-35" value="是否需要提RFQ" style="strokeWidth=2;html=1;shape=mxgraph.flowchart.decision;whiteSpace=wrap;fillColor=#F45B69;strokeColor=#028090;fontColor=#E4FDE1;" vertex="1" parent="WIyWlLk6GJQsqaUBKTNV-1">
          <mxGeometry x="200" y="1320" width="100" height="100" as="geometry" />
        </mxCell>
        <mxCell id="WijUJa5ANFM2y0LzUL5g-38" value="需要" style="text;html=1;align=center;verticalAlign=middle;resizable=0;points=[];autosize=1;strokeColor=none;fillColor=none;fontColor=#E4FDE1;" vertex="1" parent="WIyWlLk6GJQsqaUBKTNV-1">
          <mxGeometry x="369" y="1350" width="40" height="20" as="geometry" />
        </mxCell>
        <mxCell id="WijUJa5ANFM2y0LzUL5g-40" value="不需要" style="text;html=1;align=center;verticalAlign=middle;resizable=0;points=[];autosize=1;strokeColor=none;fillColor=none;fontColor=#E4FDE1;" vertex="1" parent="WIyWlLk6GJQsqaUBKTNV-1">
          <mxGeometry x="250" y="1470" width="50" height="20" as="geometry" />
        </mxCell>
      </root>
    </mxGraphModel>
  </diagram>
</mxfile>
